<?xml version="1.0" encoding="UTF-8" standalone="no"?>
<!-- Created with Inkscape (http://www.inkscape.org/) -->

<svg
   xmlns:dc="http://purl.org/dc/elements/1.1/"
   xmlns:cc="http://creativecommons.org/ns#"
   xmlns:rdf="http://www.w3.org/1999/02/22-rdf-syntax-ns#"
   xmlns:svg="http://www.w3.org/2000/svg"
   xmlns="http://www.w3.org/2000/svg"
   xmlns:inkscape="http://www.inkscape.org/namespaces/inkscape"
   version="1.1"
   width="743.75"
   height="1052.5"
   id="svg2"
   xml:space="preserve"><metadata
     id="metadata8"><rdf:RDF><cc:Work
         rdf:about=""><dc:format>image/svg+xml</dc:format><dc:type
           rdf:resource="http://purl.org/dc/dcmitype/StillImage" /></cc:Work></rdf:RDF></metadata><defs
     id="defs6"><clipPath
       id="clipPath28"><path
         d="m 0,0 8963.9998,0 0,1986.6681 L 0,1986.6681 0,0 z"
         inkscape:connector-curvature="0"
         id="path30" /></clipPath></defs><g
     transform="matrix(1.25,0,0,-1.25,0,1052.5)"
     id="g10"><g
       transform="matrix(0.06,0,0,-0.06,28.32,813.68)"
       id="g12"><g
         id="g14"><g
           id="g16" /></g><g
         id="g18"><g
           id="g20" /><g
           id="g22" /></g><g
         id="g24"><g
           clip-path="url(#clipPath28)"
           id="g26"><g
             id="g32"><g
               transform="scale(9.5974302,9.5974302)"
               id="g34"><path
                 d="m 8,16 918,0 0,40 L 8,56 8,16 z"
                 inkscape:connector-curvature="0"
                 id="path36"
                 style="fill:#f2f2f2;fill-opacity:1;fill-rule:nonzero;stroke:none" /></g><g
               transform="scale(9.5974302,9.5974302)"
               id="g38"><path
                 d="m 8,16 918,0 0,1 -918,0 0,-1 z"
                 inkscape:connector-curvature="0"
                 id="path40"
                 style="fill:#bbbbbb;fill-opacity:1;fill-rule:nonzero;stroke:none" /></g><g
               transform="scale(9.5974302,9.5974302)"
               id="g42"><path
                 d="m 8,55 918,0 0,1 -918,0 0,-1 z"
                 inkscape:connector-curvature="0"
                 id="path44"
                 style="fill:#bbbbbb;fill-opacity:1;fill-rule:nonzero;stroke:none" /></g></g><g
             transform="scale(9.5974302,9.5974302)"
             id="g46"><g
               id="g48"><text
                 transform="translate(18,43)"
                 id="text50"><tspan
                   x="0 13 24 36 41 49 60 71 77 82 95 107 113 118 129"
                   y="0"
                   id="tspan52"
                   style="font-size:19px;font-variant:normal;font-weight:bold;writing-mode:lr-tb;fill:#000000;fill-opacity:1;fill-rule:nonzero;stroke:none;font-family:Arial Black;-inkscape-font-specification:Arial-BoldMT">Redirect Notice</tspan></text>
</g><g
               id="g54"><text
                 transform="translate(47,106)"
                 id="text56"><tspan
                   x="0 9 17 26 30 39 44 53 60 64 73 81 89 93 102 111 120 129 133 137 145 149 157 166 174 183 187 195 204 208 215 224 232 236 240 249"
                   y="0"
                   id="tspan58"
                   style="font-size:16px;font-variant:normal;font-weight:normal;writing-mode:lr-tb;fill:#000000;fill-opacity:1;fill-rule:nonzero;stroke:none;font-family:Arial Black;-inkscape-font-specification:ArialMT">The previous page is sending you to </tspan></text>
</g><g
               id="g60"><text
                 transform="translate(300,106)"
                 id="text62"><tspan
                   x="0 8 12 16 25 29 33 37 48 59 70 74 78 87 92 101 110 118 122 130 139 152 156 164 168 172 181 189 193 202 211 216 220 228 232 241 249 258 267 270 274 283 292 301 310 314 323 332 336 345 354 358 369 378 386 390 395 399 408 413 421 430 433 436 441 448 457 465 470 475 484 492 500 504 512 521 529 537 542 551"
                   y="0"
                   id="tspan64"
                   style="font-size:16px;font-variant:normal;font-weight:normal;writing-mode:lr-tb;fill:#0000cc;fill-opacity:1;fill-rule:nonzero;stroke:none;font-family:Arial Black;-inkscape-font-specification:ArialMT">http://www.forbes.com/sites/geristengel/2013/11/27/want-to-sell-your-business-5-</tspan></text>
</g><path
               d="m 300,107.5 556,0"
               inkscape:connector-curvature="0"
               id="path66"
               style="fill:none;stroke:#0000cc;stroke-width:1;stroke-linecap:square;stroke-linejoin:bevel;stroke-miterlimit:10;stroke-opacity:1;stroke-dasharray:none" /><g
               id="g68"><text
                 transform="translate(43,124)"
                 id="text70"><tspan
                   x="0 9 17 26 34 38 42 51 59 67 72 79 88 96 101 114 122 130 134 139 148 156 164 169 173 182 187 196 204 212 220 225 234 239 248 253 262 271 276 280 289 297 301 306 319 328 332 340 348"
                   y="0"
                   id="tspan72"
                   style="font-size:16px;font-variant:normal;font-weight:normal;writing-mode:lr-tb;fill:#0000cc;fill-opacity:1;fill-rule:nonzero;stroke:none;font-family:Arial Black;-inkscape-font-specification:ArialMT">questions-you-must-ask-to-ensure-a-perfect-match/</tspan></text>
</g><path
               d="m 43,125.5 352,0"
               inkscape:connector-curvature="0"
               id="path74"
               style="fill:none;stroke:#0000cc;stroke-width:1;stroke-linecap:square;stroke-linejoin:bevel;stroke-miterlimit:10;stroke-opacity:1;stroke-dasharray:none" /><g
               id="g76"><text
                 transform="translate(395,124)"
                 id="text78"><tspan
                   x="0"
                   y="0"
                   id="tspan80"
                   style="font-size:16px;font-variant:normal;font-weight:normal;writing-mode:lr-tb;fill:#000000;fill-opacity:1;fill-rule:nonzero;stroke:none;font-family:Arial Black;-inkscape-font-specification:ArialMT">.</tspan></text>
</g><g
               id="g82"><text
                 transform="translate(47,160)"
                 id="text84"><tspan
                   x="0 3 7 11 18 27 35 39 48 57 61 69 78 82 86 97 106 114 118 122 126 135 139 146 150 158 162 166 170 174 182 191 195 199 208 217 226 235 239 243 250 259 267 271 279 288 296"
                   y="0"
                   id="tspan86"
                   style="font-size:16px;font-variant:normal;font-weight:normal;writing-mode:lr-tb;fill:#000000;fill-opacity:1;fill-rule:nonzero;stroke:none;font-family:Arial Black;-inkscape-font-specification:ArialMT">If you do not want to visit that page, you can </tspan></text>
</g><g
               id="g88"><text
                 transform="translate(347,160)"
                 id="text90"><tspan
                   x="0 5 14 18 26 31 39 43 47 56 60 64 72 81 85 94 99 108 115 119 128 136 144 148 157 166 175"
                   y="0"
                   id="tspan92"
                   style="font-size:16px;font-variant:normal;font-weight:normal;writing-mode:lr-tb;fill:#0000cc;fill-opacity:1;fill-rule:nonzero;stroke:none;font-family:Arial Black;-inkscape-font-specification:ArialMT">return to the previous page</tspan></text>
</g><path
               d="m 347,161.5 184,0"
               inkscape:connector-curvature="0"
               id="path94"
               style="fill:none;stroke:#0000cc;stroke-width:1;stroke-linecap:square;stroke-linejoin:bevel;stroke-miterlimit:10;stroke-opacity:1;stroke-dasharray:none" /><g
               id="g96"><text
                 transform="translate(531,160)"
                 id="text98"><tspan
                   x="0"
                   y="0"
                   id="tspan100"
                   style="font-size:16px;font-variant:normal;font-weight:normal;writing-mode:lr-tb;fill:#000000;fill-opacity:1;fill-rule:nonzero;stroke:none;font-family:Arial Black;-inkscape-font-specification:ArialMT">.</tspan></text>
</g></g></g></g><g
         id="g102"><g
           transform="scale(12,12)"
           id="g104" /><g
           id="g106" /></g></g></g></svg>